<svg width="21" height="21" viewBox="0 0 21 21" fill="none" xmlns="http://www.w3.org/2000/svg">
<path d="M20 16.5135C20 16.8555 19.9239 17.207 19.7621 17.549C19.6004 17.891 19.3911 18.214 19.1152 18.518C18.649 19.031 18.1352 19.4015 17.5548 19.639C16.984 19.8765 16.3655 20 15.6996 20C14.7291 20 13.692 19.772 12.5979 19.3065C11.5038 18.841 10.4096 18.214 9.32499 17.4255C8.23085 16.6275 7.19379 15.744 6.20431 14.7655C5.22434 13.7775 4.33951 12.742 3.54982 11.659C2.76965 10.576 2.14171 9.493 1.68503 8.4195C1.22834 7.3365 1 6.301 1 5.313C1 4.667 1.11417 4.0495 1.34251 3.4795C1.57086 2.9 1.9324 2.368 2.43666 1.893C3.04557 1.2945 3.71157 1 4.41562 1C4.68202 1 4.94842 1.057 5.18628 1.171C5.43365 1.285 5.65248 1.456 5.82374 1.703L8.03105 4.8095C8.2023 5.047 8.32599 5.2655 8.41162 5.4745C8.49725 5.674 8.54482 5.8735 8.54482 6.054C8.54482 6.282 8.47822 6.51 8.34502 6.7285C8.22133 6.947 8.04056 7.175 7.81222 7.403L7.08913 8.1535C6.98448 8.258 6.93691 8.3815 6.93691 8.5335C6.93691 8.6095 6.94642 8.676 6.96545 8.752C6.99399 8.828 7.02253 8.885 7.04156 8.942C7.21282 9.2555 7.50776 9.664 7.92639 10.158C8.35453 10.652 8.81122 11.1555 9.30596 11.659C9.81973 12.1625 10.3145 12.628 10.8187 13.0555C11.3135 13.4735 11.7226 13.7585 12.0461 13.9295C12.0936 13.9485 12.1507 13.977 12.2173 14.0055C12.2934 14.034 12.3696 14.0435 12.4552 14.0435C12.6169 14.0435 12.7406 13.9865 12.8453 13.882L13.5684 13.1695C13.8062 12.932 14.0346 12.7515 14.2534 12.6375C14.4722 12.5045 14.691 12.438 14.9289 12.438C15.1097 12.438 15.3 12.476 15.5093 12.5615C15.7186 12.647 15.9374 12.7705 16.1753 12.932L19.3245 15.1645C19.5719 15.3355 19.7431 15.535 19.8478 15.7725C19.9429 16.01 20 16.2475 20 16.5135Z" stroke="#80233A" stroke-miterlimit="10"/>
</svg>
