<svg width="41" height="41" viewBox="0 0 41 41" fill="none" xmlns="http://www.w3.org/2000/svg">
<path d="M34.5493 12.452H33.5871C33.6644 12.3191 33.7403 12.1862 33.809 12.0546C34.0143 11.6798 34.2233 11.2784 34.3489 10.9109C35.5888 7.79355 34.4852 4.15286 31.7269 2.25473C29.2144 0.520347 25.9601 0.520347 23.4352 2.25504C22.4206 2.95727 21.633 3.86733 21.0943 4.9575C20.8571 5.43231 20.6644 5.96086 20.4989 6.56578C20.3335 5.96085 20.1408 5.43231 19.905 4.96057C19.3655 3.86764 18.5776 2.95763 17.5629 2.25504C15.0437 0.514526 11.7903 0.515076 9.27205 2.25381C6.51285 4.15241 5.40916 7.79341 6.64477 10.9006C6.77553 11.2443 6.95753 11.6329 7.18281 12.0433C7.25401 12.1795 7.33197 12.3161 7.41115 12.4515L6.45022 12.4518C3.28097 12.4518 0.702881 15.0296 0.702881 18.1991V19.9587C0.702881 21.6717 1.79062 23.131 3.30957 23.6949L5.15262 35.6762C5.5869 38.5002 7.97632 40.5498 10.8331 40.5498H30.1656C33.0221 40.5498 35.4112 38.5002 35.8461 35.6762L37.6897 23.6949C39.2087 23.1314 40.2958 21.6713 40.2958 19.9587V18.1991C40.2964 15.0299 37.718 12.452 34.549 12.452L34.5493 12.452ZM22.2387 5.52547C22.6813 4.6296 23.3286 3.88254 24.1607 3.30614C26.2446 1.87434 28.929 1.87465 31.0019 3.30584C33.2753 4.87051 34.1834 7.87005 33.1521 10.4669C33.0469 10.7723 32.8673 11.1151 32.6832 11.4515C32.5533 11.6992 32.4014 11.949 32.247 12.2053L32.1233 12.394C32.1111 12.4134 32.0969 12.4327 32.0847 12.4517H21.1381V11.8057C21.1381 10.4316 21.2691 9.06982 21.5267 7.75956C21.7099 6.84036 21.9358 6.13133 22.2384 5.52546L22.2387 5.52547ZM24.331 22.669H16.6678V13.7291H24.331V22.669ZM8.87678 12.3958L8.76691 12.2273C8.61161 11.9722 8.45048 11.7076 8.31021 11.44C8.10826 11.0704 7.95081 10.7368 7.83725 10.4376C6.81614 7.86922 7.72461 4.86944 9.9986 3.30477C12.0761 1.86958 14.7607 1.86958 16.8371 3.30446C17.6703 3.88178 18.318 4.62878 18.7621 5.5278C19.0625 6.12874 19.2884 6.83806 19.4726 7.75695C19.7304 9.06901 19.8611 10.4308 19.8611 11.8049V12.451H16.0295L8.91394 12.4507C8.90228 12.4332 8.88847 12.4142 8.8768 12.3958L8.87678 12.3958ZM1.98088 19.9583V18.1987C1.98088 15.7338 3.98603 13.7286 6.45089 13.7286H15.39V22.6693L4.69089 22.6696C3.19623 22.669 1.98049 21.4533 1.98049 19.9586L1.98088 19.9583ZM6.41553 35.4816L4.64061 23.9458H16.0287V39.2719H10.8338C8.61208 39.2719 6.75363 37.6784 6.41577 35.4815L6.41553 35.4816ZM17.3063 39.2721V23.9459H23.6921V39.2721H17.3063ZM36.3599 23.9459L34.585 35.4818C34.2467 37.6784 32.3883 39.2722 30.1669 39.2722H24.9701V23.9461L36.3599 23.9459ZM39.0197 19.9581C39.0197 21.4528 37.8036 22.6688 36.309 22.6688L25.6083 22.6691V13.7285H34.5498C37.0146 13.7285 39.0198 15.7336 39.0198 18.1985L39.0197 19.9581Z" fill="#80233A"/>
</svg>
