<svg width="39" height="42" viewBox="0 0 39 42" fill="none" xmlns="http://www.w3.org/2000/svg">
<path d="M36.9305 8.00571C35.589 6.24501 33.642 5.09197 31.4517 4.75087C30.4972 4.60309 29.5362 4.60903 28.5751 4.77345C26.441 1.88233 23.1212 0.138672 19.5894 0.138672C16.0637 0.138672 12.7439 1.88233 10.6037 4.77345C9.64261 4.60863 8.68199 4.60308 7.72704 4.75087C5.5368 5.09161 3.58981 6.25049 2.24832 8.00571C0.613443 10.1413 0.0145151 12.9701 0.594724 15.7646C1.44959 19.8658 4.64448 22.9893 8.38258 23.8132C8.37648 23.8417 8.36996 23.8758 8.36996 23.9098V38.0926C8.36996 38.1607 8.38258 38.2289 8.41348 38.2855C8.38867 38.3763 8.36996 38.4674 8.36996 38.5637C8.36996 39.4666 9.57439 40.1425 12.058 40.637C14.1795 41.0629 17.0001 41.2959 19.9829 41.2959C22.9719 41.2959 25.7859 41.0629 27.9078 40.637C30.3915 40.1429 31.5959 39.461 31.5959 38.5637C31.5959 38.467 31.5833 38.3763 31.5524 38.2855C31.5772 38.2229 31.5959 38.1607 31.5959 38.0926L31.595 23.9098C31.595 23.8076 31.5576 23.7054 31.5014 23.6257C34.921 22.5805 37.7728 19.5987 38.5715 15.7646C39.1643 12.9702 38.5589 10.1413 36.9305 8.00574L36.9305 8.00571ZM27.4704 39.6433C25.4485 40.0241 22.7904 40.2396 19.9885 40.2396C17.1867 40.2396 14.5285 40.0296 12.5067 39.6433C10.2354 39.2114 9.59258 38.7174 9.53642 38.5696C9.59257 38.4218 10.2355 37.9222 12.5067 37.4959C14.5285 37.1151 17.1867 36.8996 19.9885 36.8996C22.7904 36.8996 25.4485 37.1096 27.4704 37.4959C29.7416 37.9277 30.3845 38.4218 30.4406 38.5696C30.3845 38.7174 29.742 39.2114 27.4704 39.6433ZM30.4406 23.9097V37.2516C29.8352 36.962 28.999 36.712 27.9134 36.4961C25.792 36.0701 22.9714 35.8372 19.9885 35.8372C16.9996 35.8372 14.1856 36.0701 12.0636 36.4961C10.9842 36.712 10.1419 36.962 9.53642 37.2516L9.53686 23.9949C9.80498 24.0175 10.0735 24.0345 10.3417 24.0345C10.7909 24.0345 11.2466 24.0005 11.7019 23.9323C12.75 23.7675 13.7424 23.4212 14.6474 22.8987C16.1638 23.6653 17.8484 24.0857 19.5833 24.0857C21.3244 24.0857 23.0029 23.6709 24.5193 22.8987C25.4242 23.4212 26.4161 23.7675 27.4648 23.9323C27.9205 24.0005 28.3758 24.0345 28.825 24.0345C29.3678 24.0345 29.9045 23.9834 30.435 23.8867C30.4472 23.8927 30.4407 23.9038 30.4407 23.9097L30.4406 23.9097ZM37.4358 15.5656C36.456 20.2856 32.0694 23.563 27.6701 22.8815C26.9523 22.7678 26.2724 22.5578 25.6296 22.2512C25.6544 22.2341 25.6731 22.2171 25.6984 22.2056C25.7671 22.16 25.8355 22.1149 25.9043 22.0638C25.9478 22.0297 25.9918 22.0012 26.0414 21.9671C26.0914 21.933 26.1411 21.8934 26.1911 21.8534C26.2473 21.8078 26.3034 21.7682 26.3596 21.7226C26.397 21.6941 26.4283 21.6715 26.4592 21.643C26.528 21.5863 26.5963 21.5352 26.659 21.4782C26.6777 21.4611 26.6965 21.4441 26.7152 21.4271C26.7961 21.3589 26.871 21.2908 26.9459 21.2226L26.952 21.2171C27.651 20.5923 28.2686 19.8823 28.8054 19.0927C28.8241 19.0701 28.8367 19.0415 28.8554 19.019C28.8989 18.9564 28.9429 18.8882 28.9803 18.826C28.999 18.7975 29.0178 18.7634 29.0426 18.7353C29.0426 18.7297 29.0487 18.7297 29.0487 18.7238C29.2859 18.349 29.4979 17.9627 29.6976 17.5594C29.8287 17.2924 29.6976 16.9801 29.3982 16.8609C29.1048 16.7416 28.7618 16.8609 28.6308 17.1335C27.7259 18.9908 26.3034 20.5642 24.6059 21.598C24.5624 21.6205 24.5249 21.6491 24.481 21.6716C24.4248 21.7057 24.3687 21.7398 24.3125 21.7683C22.8709 22.575 21.2548 23.0179 19.5764 23.0179C17.8979 23.0179 16.2753 22.575 14.8402 21.7683C14.7841 21.7398 14.734 21.7057 14.6779 21.6716C14.6343 21.6431 14.5904 21.6205 14.5468 21.592C12.8498 20.5583 11.4268 18.985 10.5219 17.1275C10.3909 16.8605 10.0475 16.7412 9.75455 16.8549C9.46119 16.9742 9.33017 17.2868 9.45509 17.5534C9.64835 17.9568 9.86685 18.3431 10.1041 18.7178C10.1041 18.7234 10.1041 18.7234 10.1102 18.7293C10.1289 18.7579 10.1476 18.7919 10.1663 18.8201C10.2098 18.8882 10.2538 18.9508 10.2973 19.013C10.3161 19.0356 10.3287 19.0641 10.3474 19.0867C10.8841 19.8764 11.5078 20.5863 12.2069 21.2167C12.2879 21.2849 12.3627 21.353 12.4441 21.4212C12.4628 21.4382 12.4816 21.4497 12.4942 21.4667C12.563 21.5234 12.6313 21.5804 12.7001 21.6371C12.7314 21.6656 12.7623 21.6882 12.7997 21.7167C12.8559 21.7623 12.9181 21.8075 12.9743 21.853C13.0243 21.8871 13.0679 21.9267 13.1179 21.9608C13.168 21.9949 13.2115 22.0289 13.2616 22.063C13.3303 22.1086 13.3926 22.1537 13.4614 22.1993C13.4862 22.2163 13.5114 22.2334 13.5362 22.2504C12.8933 22.5571 12.2135 22.7675 11.4958 22.8808C7.09656 23.5623 2.70983 20.2848 1.73004 15.5648C1.20598 13.0485 1.74267 10.5152 3.19644 8.60663C4.35686 7.08439 6.03564 6.08481 7.91388 5.78925C8.58159 5.68703 9.26195 5.66999 9.94177 5.74963C9.8669 5.86889 9.79813 5.99369 9.7298 6.11334C9.58616 6.37444 9.70499 6.69259 9.99184 6.82334C10.2787 6.95409 10.6282 6.84593 10.7718 6.58482C12.5999 3.25634 15.9759 1.18892 19.5765 1.18892C23.1771 1.18892 26.5529 3.25634 28.3811 6.58482C28.4808 6.77223 28.6867 6.88 28.9052 6.88C28.9927 6.88 29.0797 6.86297 29.1672 6.82335C29.454 6.69259 29.5729 6.37444 29.4292 6.11334C29.3605 5.98854 29.2921 5.86929 29.2173 5.74963C29.8976 5.67594 30.5714 5.68703 31.2452 5.78925C33.1233 6.07888 34.8022 7.08449 35.9626 8.60663C37.4299 10.5163 37.9601 13.0552 37.436 15.5655L37.4358 15.5656Z" fill="#80233A"/>
</svg>
