<svg width="41" height="42" viewBox="0 0 41 42" fill="none" xmlns="http://www.w3.org/2000/svg">
<path d="M35.8135 9.26247C30.5322 6.07125 25.1498 7.64759 22.7615 8.65309C23.1039 5.54814 21.5906 3.62869 20.1535 2.52777V2.52813C18.7664 1.48024 17.0852 0.895519 15.3474 0.856333C10.6665 0.69673 6.98375 1.94703 4.38561 4.55502C0.235728 8.71911 0.410484 14.8129 0.41847 15.0414V39.8231C0.419921 40.1539 0.552677 40.4706 0.787364 40.7034C1.0224 40.9359 1.34015 41.0658 1.67059 41.0643H1.70505C2.72072 41.0259 26.7802 40.0487 37.4736 34.3805H37.474C38.4918 33.8346 39.3416 33.0213 39.9311 32.0282C40.5209 31.0351 40.8285 29.8997 40.8205 28.7449V17.2195C40.913 13.8821 38.5161 10.9001 35.8134 9.26271L35.8135 9.26247ZM5.36376 5.51698C7.55352 3.32435 10.6562 2.21405 14.5947 2.21405C14.8272 2.21405 15.0641 2.21405 15.3056 2.22639C16.7569 2.26302 18.161 2.74834 19.3246 3.61562C21.2289 5.06902 21.8495 7.10937 21.1802 9.68105C21.1106 9.94765 21.2082 10.2302 21.4273 10.3974C21.6463 10.5646 21.9445 10.5842 22.1835 10.4468C22.2495 10.409 28.8867 6.68391 35.1065 10.4395C37.672 11.9894 40.083 15.1113 39.2999 18.3168C38.38 22.0942 32.3613 28.7344 2.39381 30.715L1.78444 30.7506V15.0178C1.78444 14.963 1.63209 9.25119 5.36343 5.51759L5.36376 5.51698ZM39.4525 28.748C39.4598 29.6544 39.2197 30.546 38.7579 31.3259C38.2962 32.1061 37.6306 32.7456 36.8323 33.175C26.8028 38.4958 3.70362 39.6112 1.79355 39.6943V32.126L2.48417 32.0854C27.0096 30.4604 36.3436 25.687 39.458 21.2007L39.4525 28.748Z" fill="#80233A"/>
<path d="M8.24014 28.8401C8.49839 28.8405 8.73453 28.6954 8.85096 28.4647C8.9674 28.2344 8.94418 27.958 8.79075 27.7505C4.93142 22.5189 5.44827 21.7177 5.47185 21.6861C5.87085 21.1569 9.57502 22.532 11.5656 23.2704C13.9698 24.162 16.4558 25.0855 18.5662 25.4275C19.654 25.6042 20.8187 25.6734 21.2231 24.8537C21.7676 23.7506 20.37 22.3633 17.1555 19.3287C14.4054 16.7327 10.9826 13.5012 10.3632 11.2037C10.2972 10.9578 10.2137 10.5232 10.4009 10.3759C11.2936 9.67118 15.9626 10.8319 26.1746 16.416C29.6407 18.3124 34.7667 18.1244 34.9829 18.1172H34.9825C35.3594 18.1012 35.6525 17.7831 35.6376 17.4062C35.6333 17.2238 35.5553 17.0511 35.4211 16.9274C35.2872 16.8038 35.1088 16.7399 34.9267 16.7501C34.8788 16.7501 29.9676 16.9318 26.83 15.2164C17.1227 9.90873 11.3099 7.92028 9.55393 9.30153C9.13136 9.63379 8.69972 10.2946 9.04104 11.5602C9.76105 14.2363 13.1909 17.4741 16.2154 20.3301C17.613 21.6504 19.4755 23.4075 19.8847 24.172H19.8851C19.5162 24.1815 19.1477 24.1517 18.7853 24.0828C16.807 23.7618 14.3837 22.8641 12.0415 21.9935C8.1822 20.5604 5.39212 19.5245 4.38081 20.8691C3.66262 21.8209 3.95135 23.4945 7.69071 28.5675L7.69034 28.5679C7.82019 28.7406 8.02405 28.8414 8.23987 28.8399L8.24014 28.8401Z" fill="#80233A"/>
</svg>
