<svg width="27" height="27" viewBox="0 0 27 27" fill="none" xmlns="http://www.w3.org/2000/svg">
<path d="M13.4989 8.29913C12.1192 8.29913 10.7961 8.8472 9.82051 9.82276C8.84494 10.7983 8.29688 12.1215 8.29688 13.5011C8.29688 14.8808 8.84494 16.2039 9.82051 17.1795C10.7961 18.1551 12.1192 18.7031 13.4989 18.7031C14.8785 18.7031 16.2017 18.1551 17.1772 17.1795C18.1528 16.2039 18.7009 14.8808 18.7009 13.5011C18.7009 12.1215 18.1528 10.7983 17.1772 9.82276C16.2017 8.8472 14.8785 8.29913 13.4989 8.29913ZM13.4989 16.8795C12.6026 16.8795 11.743 16.5235 11.1092 15.8897C10.4754 15.2559 10.1194 14.3963 10.1194 13.5C10.1194 12.6037 10.4754 11.7441 11.1092 11.1103C11.743 10.4766 12.6026 10.1205 13.4989 10.1205C14.3952 10.1205 15.2548 10.4766 15.8885 11.1103C16.5223 11.7441 16.8784 12.6037 16.8784 13.5C16.8784 14.3963 16.5223 15.2559 15.8885 15.8897C15.2548 16.5235 14.3952 16.8795 13.4989 16.8795Z" fill="black"/>
<path d="M18.9066 9.32064C19.5764 9.32064 20.1193 8.77767 20.1193 8.10789C20.1193 7.43811 19.5764 6.89514 18.9066 6.89514C18.2368 6.89514 17.6938 7.43811 17.6938 8.10789C17.6938 8.77767 18.2368 9.32064 18.9066 9.32064Z" fill="black"/>
<path d="M23.0998 6.87487C22.8394 6.20232 22.4414 5.59156 21.9313 5.08168C21.4212 4.5718 20.8103 4.17405 20.1377 3.91387C19.3506 3.61839 18.519 3.45862 17.6784 3.44137C16.5951 3.39412 16.2519 3.38062 13.5047 3.38062C10.7574 3.38062 10.4053 3.38062 9.33094 3.44137C8.491 3.45774 7.66004 3.61754 6.87394 3.91387C6.20112 4.17374 5.59005 4.57139 5.07994 5.08131C4.56983 5.59122 4.17195 6.20214 3.91182 6.87487C3.61628 7.66193 3.45688 8.49356 3.44044 9.33412C3.39207 10.4164 3.37744 10.7595 3.37744 13.5079C3.37744 16.2551 3.37744 16.605 3.44044 17.6816C3.45732 18.5231 3.61594 19.3534 3.91182 20.142C4.17268 20.8145 4.57095 21.4251 5.08118 21.935C5.59141 22.4448 6.20239 22.8426 6.87507 23.103C7.65968 23.4103 8.49098 23.5815 9.33319 23.6092C10.4166 23.6565 10.7597 23.6711 13.5069 23.6711C16.2542 23.6711 16.6063 23.6711 17.6807 23.6092C18.5212 23.5921 19.3527 23.4328 20.1399 23.1379C20.8124 22.8771 21.4231 22.479 21.9332 21.969C22.4432 21.4589 22.8413 20.8482 23.1021 20.1757C23.3979 19.3882 23.5566 18.558 23.5734 17.7165C23.6218 16.6342 23.6364 16.2911 23.6364 13.5427C23.6364 10.7944 23.6364 10.4456 23.5734 9.36899C23.5603 8.51655 23.4001 7.67277 23.0998 6.87487ZM21.7296 17.5984C21.7223 18.2467 21.604 18.889 21.3797 19.4974C21.2107 19.9348 20.9521 20.3321 20.6204 20.6636C20.2887 20.9951 19.8913 21.2535 19.4537 21.4222C18.8521 21.6455 18.2166 21.7638 17.5749 21.7721C16.5062 21.8216 16.2047 21.834 13.4642 21.834C10.7214 21.834 10.4413 21.834 9.35232 21.7721C8.71098 21.7643 8.07581 21.6459 7.47469 21.4222C7.03559 21.2546 6.63657 20.9966 6.30344 20.6651C5.97032 20.3335 5.71051 19.9357 5.54082 19.4974C5.31969 18.8955 5.20142 18.2608 5.19094 17.6197C5.14257 16.551 5.13132 16.2495 5.13132 13.509C5.13132 10.7674 5.13132 10.4872 5.19094 9.39711C5.19821 8.74914 5.31655 8.10721 5.54082 7.49924C5.88394 6.61161 6.58707 5.91299 7.47469 5.57324C8.0761 5.35065 8.71109 5.23232 9.35232 5.22337C10.4222 5.17499 10.7226 5.16149 13.4642 5.16149C16.2058 5.16149 16.4871 5.16149 17.5749 5.22337C18.2167 5.23108 18.8522 5.34945 19.4537 5.57324C19.8912 5.7423 20.2886 6.00097 20.6203 6.33265C20.952 6.66433 21.2106 7.0617 21.3797 7.49924C21.6008 8.10106 21.7191 8.7358 21.7296 9.37687C21.7779 10.4467 21.7903 10.7471 21.7903 13.4887C21.7903 16.2292 21.7903 16.524 21.7419 17.5995H21.7296V17.5984Z" fill="black"/>
</svg>
