<svg width="24" height="24" viewBox="0 0 24 24" fill="none" xmlns="http://www.w3.org/2000/svg">
<path d="M21.2815 4.41982L21.2494 4.39976L17.1904 2.40002L12.8093 8.24145L14.8249 10.9291C14.7646 11.9427 14.3348 12.899 13.6168 13.617C12.8988 14.335 11.9425 14.7648 10.9289 14.8251L8.24128 12.8095L2.3999 17.1904L4.383 21.2156L4.39968 21.2495L4.41979 21.2816C4.52562 21.4521 4.67333 21.5927 4.84886 21.69C5.02439 21.7873 5.2219 21.838 5.42259 21.8374H6.46996C8.48803 21.8374 10.4863 21.4399 12.3508 20.6676C14.2152 19.8953 15.9093 18.7634 17.3363 17.3364C18.7633 15.9094 19.8952 14.2153 20.6675 12.3509C21.4398 10.4864 21.8373 8.48811 21.8373 6.47004V5.42262C21.8379 5.22193 21.7872 5.02443 21.6899 4.84889C21.5926 4.67336 21.452 4.52565 21.2815 4.41982ZM20.3373 6.47004C20.3373 14.1165 14.1164 20.3374 6.46996 20.3374H5.62246L4.29562 17.6438L8.24156 14.6844L10.4384 16.332H10.6884C12.1847 16.3303 13.6193 15.7352 14.6773 14.6771C15.7354 13.6191 16.3305 12.1845 16.3322 10.6882V10.4382L14.6846 8.2414L17.6437 4.2957L20.3373 5.62277V6.47004Z" fill="black"/>
</svg>
