<svg width="28" height="28" viewBox="0 0 28 28" fill="none" xmlns="http://www.w3.org/2000/svg">
<path d="M8.47519 4.15785L17.0012 12.9043L8.47519 21.6508C8.32256 21.8071 8.2371 22.0169 8.2371 22.2353C8.2371 22.4538 8.32256 22.6636 8.47519 22.8198C8.54933 22.8955 8.63782 22.9556 8.73548 22.9967C8.83314 23.0377 8.93801 23.0588 9.04394 23.0588C9.14988 23.0588 9.25474 23.0377 9.3524 22.9967C9.45007 22.9556 9.53856 22.8955 9.61269 22.8198L18.6847 13.5151C18.844 13.3517 18.9331 13.1325 18.9331 12.9043C18.9331 12.6762 18.844 12.457 18.6847 12.2936L9.61444 2.98885C9.54025 2.91265 9.45154 2.85208 9.35356 2.81072C9.25557 2.76937 9.1503 2.74806 9.04394 2.74806C8.93759 2.74806 8.83231 2.76937 8.73433 2.81072C8.63634 2.85208 8.54764 2.91265 8.47344 2.98885C8.3208 3.14512 8.23535 3.3549 8.23535 3.57335C8.23535 3.79179 8.3208 4.00158 8.47344 4.15785L8.47519 4.15785Z" fill="#80233A"/>
</svg>
