<svg width="49" height="37" viewBox="0 0 49 37" fill="none" xmlns="http://www.w3.org/2000/svg">
<path d="M0.679865 37V27.4119C0.679865 24.5 1.19478 21.4105 2.22461 18.1435C3.28995 14.8409 4.81694 11.6626 6.80558 8.60867C8.82972 5.51917 11.2623 2.83806 14.1032 0.565338L20.9213 6.10511C18.6841 9.30113 16.731 12.6392 15.062 16.1193C13.4284 19.5639 12.6117 23.2571 12.6117 27.1989V37H0.679865ZM27.9526 37V27.4119C27.9526 24.5 28.4675 21.4105 29.4973 18.1435C30.5627 14.8409 32.0897 11.6626 34.0783 8.60867C36.1025 5.51917 38.535 2.83806 41.3759 0.565338L48.1941 6.10511C45.9569 9.30113 44.0037 12.6392 42.3347 16.1193C40.7012 19.5639 39.8844 23.2571 39.8844 27.1989V37H27.9526Z" fill="#F4F2F2"/>
</svg>
