<svg width="23" height="23" viewBox="0 0 23 23" fill="none" xmlns="http://www.w3.org/2000/svg">
<path d="M11.5 1.4375C12.4531 1.4375 13.3672 1.81613 14.0412 2.49009C14.7151 3.16404 15.0938 4.07813 15.0938 5.03125V5.75H7.90625V5.03125C7.90625 4.07813 8.28488 3.16404 8.95884 2.49009C9.63279 1.81613 10.5469 1.4375 11.5 1.4375ZM16.5312 5.75V5.03125C16.5312 3.69688 16.0012 2.41716 15.0576 1.47362C14.1141 0.530077 12.8344 0 11.5 0C10.1656 0 8.88591 0.530077 7.94237 1.47362C6.99883 2.41716 6.46875 3.69688 6.46875 5.03125V5.75H1.4375V20.125C1.4375 20.8875 1.7404 21.6188 2.27957 22.1579C2.81874 22.6971 3.55 23 4.3125 23H18.6875C19.45 23 20.1813 22.6971 20.7204 22.1579C21.2596 21.6188 21.5625 20.8875 21.5625 20.125V5.75H16.5312ZM2.875 7.1875H20.125V20.125C20.125 20.5062 19.9735 20.8719 19.704 21.1415C19.4344 21.411 19.0687 21.5625 18.6875 21.5625H4.3125C3.93125 21.5625 3.56562 21.411 3.29603 21.1415C3.02645 20.8719 2.875 20.5062 2.875 20.125V7.1875Z" fill="white"/>
</svg>
